<svg xmlns:svg="http://www.w3.org/2000/svg" xmlns="http://www.w3.org/2000/svg" height="100" width="100" version="1.1" viewBox="0 0 354.3 354.3"><style>.s0{fill:#006633;}</style><g transform="matrix(3.5422,0,0,3.5398783,0.43899,-3373.2228)" fill="#006633"><path d="m167 977c0 12.4-48.1 17.3-55.4 27.3-7.3 10 2.9 57.3-8.9 61.1-11.8 3.8-31.4-40.4-43.1-44.2-11.8-3.8-53.6 20.4-60.9 10.4-7.3-10 28.7-42.3 28.7-54.7 0-12.4-36-44.7-28.7-54.7 7.3-10 49.1 14.3 60.9 10.4 11.8-3.8 31.4-48.1 43.1-44.2 11.8 3.8 1.6 51.1 8.9 61.1 7.3 10 55.4 15 55.4 27.3z" transform="matrix(0.591,0,0,0.564,1.21,452)" fill="#006633"/></g></svg>